<svg width="11" height="16" viewBox="0 0 11 16" fill="none" xmlns="http://www.w3.org/2000/svg">
<path d="M1 11H10" stroke="#064088" stroke-width="1.5" stroke-miterlimit="10" stroke-linecap="round" stroke-linejoin="round"/>
<path d="M5.56159 13.7174C5.87174 13.7174 6.12317 13.4449 6.12317 13.1087C6.12317 12.7725 5.87174 12.5 5.56159 12.5C5.25143 12.5 5 12.7725 5 13.1087C5 13.4449 5.25143 13.7174 5.56159 13.7174Z" fill="#064088"/>
<path d="M9.4 15H1.6C1.27 15 1 14.7261 1 14.3913V1.6087C1 1.27391 1.27 1 1.6 1H9.4C9.73 1 10 1.27391 10 1.6087V14.3913C10 14.7261 9.73 15 9.4 15Z" stroke="#064088" stroke-width="1.5" stroke-miterlimit="10" stroke-linecap="round" stroke-linejoin="round"/>
</svg>
