<svg width="31" height="30" viewBox="0 0 31 30" fill="none" xmlns="http://www.w3.org/2000/svg">
<path fill-rule="evenodd" clip-rule="evenodd" d="M8.11245 1.64275H1.78589C1.63158 1.64275 1.47727 1.69889 1.37439 1.8112C1.27152 1.92351 1.22009 2.09196 1.22009 2.20427V28.54C1.22009 28.7085 1.27152 28.8769 1.37439 28.9892C1.47727 29.1016 1.63158 29.1577 1.78589 29.1577H8.11245C8.26676 29.1577 8.42106 29.1016 8.52393 28.9892C8.6268 28.8769 8.67825 28.7085 8.67825 28.54V2.20427C8.67825 2.03581 8.6268 1.86738 8.52393 1.75508C8.42106 1.69893 8.26676 1.64275 8.11245 1.64275ZM25.0862 20.2294C24.5718 20.2856 24.1089 20.6225 23.8003 21.0155C23.4917 21.4648 23.3374 21.9701 23.4402 22.5878C23.4917 23.1493 23.8003 23.6547 24.1603 23.9916C24.5718 24.3286 25.0347 24.497 25.6005 24.3847C26.1149 24.3286 26.5778 23.9916 26.8864 23.5986C27.195 23.1493 27.3493 22.644 27.2465 22.0263C27.195 21.4648 26.8864 20.9594 26.5264 20.6225C26.1149 20.3417 25.6005 20.1732 25.0862 20.2294ZM23.2345 20.5663C23.646 19.9486 24.2632 19.5555 24.9833 19.4432C25.7034 19.3309 26.4235 19.5556 26.9379 20.0048C27.5036 20.454 27.8637 21.1278 27.9666 21.914C28.0694 22.7001 27.8637 23.4863 27.4522 24.0478C27.0407 24.6655 26.4235 25.0585 25.7034 25.1708C24.9833 25.2832 24.2632 25.0585 23.7489 24.6093C23.1831 24.1601 22.823 23.4862 22.7201 22.7001C22.6173 21.914 22.823 21.184 23.2345 20.5663ZM21.5886 10.2903C21.3828 10.3465 21.1771 10.178 21.1771 9.9534C21.1256 9.72879 21.2799 9.50417 21.4857 9.50417L25.8577 8.83032C26.0635 8.77417 26.2692 8.94265 26.2692 9.16726C26.3206 9.39188 26.1663 9.61646 25.9606 9.61646L21.5886 10.2903ZM25.3948 5.01192C25.6005 4.95576 25.8063 5.12425 25.8063 5.34886C25.8577 5.57347 25.7034 5.7981 25.4976 5.7981L21.1256 6.4719C20.9199 6.52806 20.7142 6.35961 20.7142 6.135C20.6627 5.91039 20.817 5.68577 21.0228 5.68577L25.3948 5.01192ZM25.8577 0.856611C26.012 0.856611 26.1663 0.856635 26.2692 0.968941C26.3721 1.08125 26.4749 1.19355 26.4749 1.36201L29.7668 27.4731C29.7668 27.6416 29.7668 27.81 29.6639 27.9223C29.5611 28.0346 29.4582 28.1469 29.3039 28.1469L23.0802 29.1015C22.9259 29.1015 22.7716 29.1016 22.6687 28.9892C22.5658 28.8769 22.463 28.7646 22.463 28.5962L19.1711 2.48505C19.1711 2.31659 19.1711 2.14812 19.274 2.03582C19.3768 1.92351 19.4797 1.8112 19.634 1.8112L25.8577 0.856611ZM19.5311 0.968941L25.7034 0.0143083H25.7548C26.1149 -0.0418446 26.4235 0.0704784 26.6807 0.29509C26.9379 0.519702 27.1436 0.800444 27.195 1.19351V1.24968L30.4869 27.3046V27.3608C30.5383 27.7539 30.4355 28.0908 30.2297 28.3716C30.024 28.6523 29.7668 28.8769 29.4068 28.9331H29.3553L23.1831 29.8877H23.1316C22.7716 29.9438 22.463 29.8315 22.2058 29.6069C21.9486 29.3823 21.7429 29.1015 21.6914 28.7085V28.6523L18.3996 2.59734V2.54122C18.3481 2.14815 18.451 1.81123 18.6567 1.53046C18.8625 1.2497 19.1196 1.02509 19.4797 0.968941H19.5311ZM13.1017 20.7909C12.5873 20.7909 12.073 21.0155 11.7644 21.4086C11.4043 21.8017 11.1986 22.307 11.1986 22.8686C11.1986 23.4301 11.4043 23.9916 11.7644 24.3285C12.1244 24.7216 12.5873 24.9462 13.1017 24.9462C13.616 24.9462 14.1304 24.7216 14.439 24.3285C14.7991 23.9355 15.0048 23.4301 15.0048 22.8686C15.0048 22.307 14.7991 21.7455 14.439 21.4086C14.079 21.0155 13.616 20.7909 13.1017 20.7909ZM11.1986 20.7909C11.6615 20.2855 12.3302 19.9486 13.0503 19.9486C13.7704 19.9486 14.439 20.2855 14.9534 20.7909C15.4163 21.2963 15.7249 22.0263 15.7249 22.8124C15.7249 23.5986 15.4163 24.3286 14.9534 24.8339C14.4904 25.3393 13.8218 25.6762 13.0503 25.6762C12.3302 25.6762 11.6615 25.3393 11.1986 24.8339C10.7357 24.3286 10.4271 23.5986 10.4271 22.8124C10.4271 22.0263 10.7357 21.3525 11.1986 20.7909ZM10.89 10.3465C10.6842 10.3465 10.5299 10.178 10.5299 9.9534C10.5299 9.72879 10.6842 9.56033 10.89 9.56033H15.3134C15.5192 9.56033 15.6735 9.72879 15.6735 9.9534C15.6735 10.178 15.5192 10.3465 15.3134 10.3465H10.89ZM15.262 5.74193C15.4677 5.74193 15.622 5.91039 15.622 6.135C15.622 6.35961 15.4677 6.52807 15.262 6.52807H10.8385C10.6328 6.52807 10.4785 6.35961 10.4785 6.135C10.4785 5.91039 10.6328 5.74193 10.8385 5.74193H15.262ZM16.2393 1.64275C16.3936 1.64275 16.5479 1.69889 16.6507 1.8112C16.7536 1.92351 16.805 2.09198 16.805 2.26043V28.5962C16.805 28.7646 16.7536 28.9331 16.6507 29.0454C16.5479 29.1577 16.3936 29.2139 16.2393 29.2139H9.91269C9.75838 29.2139 9.60409 29.1577 9.50121 29.0454C9.39834 28.9331 9.3469 28.7646 9.3469 28.5962V2.26043C9.3469 2.09198 9.39834 1.97967 9.50121 1.86737C9.60409 1.75506 9.75838 1.69891 9.91269 1.69891H16.2393V1.64275ZM9.96414 0.856611H16.2907C16.6507 0.856611 16.9594 1.02507 17.2165 1.24968C17.4737 1.53044 17.5766 1.86736 17.5766 2.26043V28.5962C17.5766 28.9892 17.4223 29.3262 17.2165 29.6069C16.9594 29.8877 16.6507 30 16.2907 30H9.96414C9.60409 30 9.29547 29.8315 9.03829 29.6069C8.78112 29.8877 8.4725 30 8.11245 30H1.78589C1.42584 30 1.11722 29.8315 0.860047 29.6069C0.602869 29.3262 0.5 28.9892 0.5 28.5962V2.26043C0.5 1.86736 0.654305 1.53046 0.860047 1.30584C1.11722 1.02508 1.42584 0.912776 1.78589 0.912776H8.11245C8.4725 0.912776 8.78112 1.08123 9.03829 1.30584C9.29547 1.02508 9.60409 0.856611 9.96414 0.856611ZM4.92344 20.7909C5.43779 20.7909 5.95216 21.0155 6.26077 21.4086C6.62082 21.8017 6.82657 22.307 6.82657 22.8686C6.82657 23.4301 6.62082 23.9916 6.26077 24.3285C5.90072 24.7216 5.43779 24.9462 4.92344 24.9462C4.40908 24.9462 3.89474 24.7216 3.58612 24.3285C3.22607 23.9355 3.02033 23.4301 3.02033 22.8686C3.02033 22.307 3.22607 21.7455 3.58612 21.4086C3.89474 21.0155 4.40908 20.7909 4.92344 20.7909ZM3.02033 20.7909C3.48325 20.2855 4.15191 19.9486 4.87201 19.9486C5.59211 19.9486 6.26076 20.2855 6.77512 20.7909C7.23804 21.2963 7.54666 22.0263 7.54666 22.8124C7.54666 23.5986 7.23804 24.3286 6.77512 24.8339C6.3122 25.3393 5.64354 25.6762 4.87201 25.6762C4.15191 25.6762 3.48325 25.3393 3.02033 24.8339C2.55741 24.3286 2.24881 23.5986 2.24881 22.8124C2.24881 22.0263 2.55741 21.3525 3.02033 20.7909ZM2.71173 10.3465C2.50599 10.3465 2.35166 10.178 2.35166 9.9534C2.35166 9.72879 2.50599 9.56033 2.71173 9.56033H7.13517C7.34091 9.56033 7.49521 9.72879 7.49521 9.9534C7.49521 10.178 7.34091 10.3465 7.13517 10.3465H2.71173ZM7.13517 5.74193C7.34091 5.74193 7.49521 5.91039 7.49521 6.135C7.49521 6.35961 7.34091 6.52807 7.13517 6.52807H2.71173C2.50599 6.52807 2.35166 6.35961 2.35166 6.135C2.35166 5.91039 2.50599 5.74193 2.71173 5.74193H7.13517Z" fill="#064088"/>
</svg>
