<svg width="16" height="15" viewBox="0 0 16 15" fill="none" xmlns="http://www.w3.org/2000/svg">
<path d="M13.6824 14.0001H1.57647C1.25941 14.0001 1 13.7407 1 13.4236V3.04717C1 2.73011 1.25941 2.4707 1.57647 2.4707H13.6824C13.9994 2.4707 14.2588 2.73011 14.2588 3.04717V13.4236C14.2588 13.7407 13.9994 14.0001 13.6824 14.0001Z" stroke="#064088" stroke-width="1.5" stroke-miterlimit="10" stroke-linecap="round" stroke-linejoin="round"/>
<path d="M1 5.35303H14.2588" stroke="#064088" stroke-width="1.5" stroke-miterlimit="10" stroke-linecap="round" stroke-linejoin="round"/>
<path d="M4.29407 10.5001C4.29407 11.0663 4.8023 11.5295 5.42348 11.5295H5.98819C6.60936 11.5295 7.1176 11.0663 7.1176 10.5001C7.1176 9.93392 6.60936 9.47069 5.98819 9.47069H5.42348H5.98819C6.60936 9.47069 7.1176 9.00745 7.1176 8.44128C7.1176 7.8751 6.60936 7.41187 5.98819 7.41187H5.42348C4.8023 7.41187 4.29407 7.8751 4.29407 8.44128" stroke="#064088" stroke-width="1.5" stroke-miterlimit="10" stroke-linecap="round" stroke-linejoin="round"/>
<path d="M10.8824 11.5295V7.41187L9 8.44128" stroke="#064088" stroke-width="1.5" stroke-miterlimit="10" stroke-linecap="round" stroke-linejoin="round"/>
<path d="M10.8823 2.47059L10.8823 0" stroke="#064088" stroke-width="1.5"/>
<path d="M4.70593 2.47059V0" stroke="#064088" stroke-width="1.5"/>
</svg>
