<svg width="18" height="16" viewBox="0 0 18 16" fill="none" xmlns="http://www.w3.org/2000/svg">
<path d="M5.66662 5.66675H2.33332C1.59999 5.66675 1 6.26674 1 7.00007V11.6667C1 12.4 1.59999 13 2.33332 13H8.33326L10.3332 15V9.66671" stroke="#064088" stroke-width="1.5" stroke-miterlimit="10" stroke-linecap="round" stroke-linejoin="round"/>
<path d="M14.9999 8.33326H8.99998L7 10.3332V2.33332C7 1.59999 7.59999 1 8.33332 1H14.9999C15.7332 1 16.3332 1.59999 16.3332 2.33332V6.99994C16.3332 7.73326 15.7332 8.33326 14.9999 8.33326Z" stroke="#064088" stroke-width="1.5" stroke-miterlimit="10" stroke-linecap="round" stroke-linejoin="round"/>
<path d="M9.98962 5.31249C10.3521 5.31249 10.6459 5.01868 10.6459 4.65624C10.6459 4.29381 10.3521 4 9.98962 4C9.62718 4 9.33337 4.29381 9.33337 4.65624C9.33337 5.01868 9.62718 5.31249 9.98962 5.31249Z" fill="#064088"/>
<path d="M12.8644 5.31249C13.2268 5.31249 13.5206 5.01868 13.5206 4.65624C13.5206 4.29381 13.2268 4 12.8644 4C12.5019 4 12.2081 4.29381 12.2081 4.65624C12.2081 5.01868 12.5019 5.31249 12.8644 5.31249Z" fill="#064088"/>
</svg>
