<svg width="16" height="16" viewBox="0 0 16 16" fill="none" xmlns="http://www.w3.org/2000/svg">
<path d="M9.09992 5.15958C9.09992 6.32057 8.05773 7.23317 6.85894 7.01717C6.00575 6.86057 5.31995 5.93719 5.31995 5.06779V4.49536C5.31995 3.62597 6.00035 2.69718 6.85894 2.54598C8.05773 2.32998 9.09992 3.24258 9.09992 4.40357V5.15958Z" stroke="#064088" stroke-width="1.5" stroke-miterlimit="10" stroke-linecap="round" stroke-linejoin="round"/>
<path d="M7.20952 13.419C10.6389 13.419 13.419 10.6389 13.419 7.20952C13.419 3.7801 10.6389 1 7.20952 1C3.7801 1 1 3.7801 1 7.20952C1 10.6389 3.7801 13.419 7.20952 13.419Z" stroke="#064088" stroke-width="1.5" stroke-miterlimit="10" stroke-linecap="round" stroke-linejoin="round"/>
<path d="M2.97546 11.7515C3.66666 10.1963 5.30285 9.1001 7.20904 9.1001C9.11522 9.1001 10.7514 10.1963 11.4426 11.7515" stroke="#064088" stroke-width="1.5" stroke-miterlimit="10" stroke-linecap="round" stroke-linejoin="round"/>
<path d="M14.9983 15L11.6377 11.6394" stroke="#064088" stroke-width="1.5" stroke-miterlimit="10" stroke-linecap="round" stroke-linejoin="round"/>
</svg>
