<svg width="31" height="30" viewBox="0 0 31 30" fill="none" xmlns="http://www.w3.org/2000/svg">
<path d="M23.092 15.6178C24.9268 15.6178 26.4142 14.1304 26.4142 12.2956C26.4142 10.4608 24.9268 8.97336 23.092 8.97336C21.2572 8.97336 19.7698 10.4608 19.7698 12.2956C19.7698 14.1304 21.2572 15.6178 23.092 15.6178Z" stroke="#064088" stroke-miterlimit="10" stroke-linecap="round" stroke-linejoin="round"/>
<path d="M12.4587 7.64443C14.2935 7.64443 15.7809 6.15702 15.7809 4.32221C15.7809 2.48741 14.2935 1 12.4587 1C10.6239 1 9.13647 2.48741 9.13647 4.32221C9.13647 6.15702 10.6239 7.64443 12.4587 7.64443Z" stroke="#064088" stroke-miterlimit="10" stroke-linecap="round" stroke-linejoin="round"/>
<path d="M19.1044 22.9265C19.1044 22.9265 24.7123 20.6009 26.6924 20.2687C28.3402 19.9896 29.4032 20.7205 30.0411 21.2654C30.8118 21.9165 30.5726 23.179 29.6158 23.5245L13.935 29.1722C12.7789 29.5842 11.5164 29.531 10.4135 29.0127L1.27074 24.7337C0.805626 24.5211 0.5 24.0427 0.5 23.5245V16.3352C0.5 15.5512 1.17774 14.9399 1.96178 15.0063C3.47671 15.1525 5.54976 15.6708 8.47331 17.6109H8.69924H14.2805C17.4167 17.6109 19.1044 19.9896 19.1044 22.9265ZM19.1044 22.9265H18.626H8.47331" stroke="#064088" stroke-miterlimit="10" stroke-linecap="round" stroke-linejoin="round"/>
</svg>
