<svg width="12" height="13" viewBox="0 0 12 13" fill="none" xmlns="http://www.w3.org/2000/svg">
<g clip-path="url(#clip0)">
<path d="M8.96629 5.97317C8.90554 5.83892 8.77204 5.75342 8.62504 5.75342H7.12504V0.878418C7.12504 0.671418 6.95704 0.503418 6.75004 0.503418H5.25005C5.04305 0.503418 4.87505 0.671418 4.87505 0.878418V5.75342H3.37505C3.22805 5.75342 3.09455 5.83967 3.0338 5.97317C2.9723 6.10742 2.9963 6.26417 3.09305 6.37517L5.71805 9.37517C5.7893 9.45692 5.89205 9.50342 6.00005 9.50342C6.10805 9.50342 6.2108 9.45617 6.28205 9.37517L8.90704 6.37517C9.00454 6.26492 9.02704 6.10742 8.96629 5.97317Z" fill="#004898"/>
<path d="M10.125 8.75342V11.0034H1.875V8.75342H0.375V11.7534C0.375 12.1682 0.711 12.5034 1.125 12.5034H10.875C11.2898 12.5034 11.625 12.1682 11.625 11.7534V8.75342H10.125Z" fill="#004898"/>
</g>
<defs>
<clipPath id="clip0">
<rect y="0.503418" width="12" height="12" fill="white"/>
</clipPath>
</defs>
</svg>
