<svg width="17" height="18" viewBox="0 0 17 18" fill="none" xmlns="http://www.w3.org/2000/svg">
<path d="M10.6908 12.7608V16.2198C10.6908 16.6003 10.3793 16.9116 9.99855 16.9116H1.6922C1.31149 16.9116 1 16.6003 1 16.2198V1.69181C1 1.31131 1.31149 1 1.6922 1H9.99855C10.3793 1 10.6908 1.31131 10.6908 1.69181" stroke="#064088" stroke-miterlimit="10" stroke-linecap="round" stroke-linejoin="round"/>
<path d="M1 14.8362H10.6908" stroke="#064088" stroke-miterlimit="10" stroke-linecap="round" stroke-linejoin="round"/>
<path d="M7.22979 3.76733C6.84909 3.76733 6.5376 4.07865 6.5376 4.45914V10.6854H7.22979V13.4526L9.99858 10.6854H15.5362C15.9169 10.6854 16.2283 10.3741 16.2283 9.99356V4.45914C16.2283 4.07865 15.9169 3.76733 15.5362 3.76733H7.22979Z" stroke="#064088" stroke-miterlimit="10" stroke-linecap="round" stroke-linejoin="round"/>
</svg>
