<svg width="16" height="16" viewBox="0 0 16 16" fill="none" xmlns="http://www.w3.org/2000/svg">
<path d="M15 14.3913V4.04348L11.9565 1H1.6087C1.27391 1 1 1.27391 1 1.6087V14.3913C1 14.7261 1.27391 15 1.6087 15H14.3913C14.7261 15 15 14.7261 15 14.3913Z" stroke="#064088" stroke-width="1.5" stroke-miterlimit="10" stroke-linecap="round" stroke-linejoin="round"/>
<path d="M4 15H12V11.4444C12 11.2 11.76 11 11.4667 11H4.55465C4.25065 11 4 11.2045 4 11.4622V15Z" stroke="#064088" stroke-width="1.5" stroke-miterlimit="10" stroke-linecap="round" stroke-linejoin="round"/>
<path d="M10 1H5V3.57143C5 3.80714 5.28125 4 5.625 4H9.375C9.71875 4 10 3.80714 10 3.57143V1Z" stroke="#064088" stroke-width="1.5" stroke-miterlimit="10" stroke-linecap="round" stroke-linejoin="round"/>
</svg>
