<svg width="19" height="16" viewBox="0 0 19 16" fill="none" xmlns="http://www.w3.org/2000/svg">
<path d="M1.09746 1.73877C0.972003 1.95832 0.98455 2.25942 1.041 2.57305C1.60555 5.74076 3.13607 8.57597 5.2876 10.7338C7.43913 12.8853 10.3559 14.4974 13.4233 14.9616C13.7369 15.0118 14.038 15.0306 14.2576 14.9051C14.3328 14.8612 14.4332 14.7797 14.4583 14.6542L14.9601 12.3961C14.9977 12.2016 14.9287 12.0009 14.7719 11.8441C14.6966 11.7688 12.9842 11.1478 12.175 10.7589C11.8426 10.5958 11.4537 10.6899 11.2906 10.9596L10.9769 11.4991C10.8703 11.681 10.6884 11.8189 10.4877 11.8691C9.6973 12.0699 7.25095 9.81797 6.71777 9.28479C6.16578 8.73279 3.83862 6.22375 4.03935 5.43339C4.08953 5.22639 4.22752 5.05074 4.40943 4.9441C4.87988 4.66811 4.75443 4.74338 4.94261 4.63047C5.21861 4.46738 5.31269 4.07849 5.1496 3.74604C4.79833 3.02468 4.59135 2.34722 4.35926 1.57568C4.2589 1.23695 3.93271 0.967237 3.60653 1.03624C3.60653 1.03624 3.5689 1.04251 1.33582 1.54432C1.22291 1.56314 1.14137 1.6635 1.09746 1.73877Z" stroke="#064088" stroke-width="1.5" stroke-miterlimit="10"/>
<path d="M9.69128 3.35107C12.7614 3.35107 15.2455 5.83529 15.2455 8.90537" stroke="#064088" stroke-width="1.5" stroke-miterlimit="10" stroke-linecap="round" stroke-linejoin="round"/>
<path d="M9.69128 1C14.0581 1 17.5969 4.53878 17.5969 8.90563" stroke="#064088" stroke-width="1.5" stroke-miterlimit="10" stroke-linecap="round" stroke-linejoin="round"/>
</svg>
