<svg width="22" height="22" viewBox="0 0 22 22" fill="none" xmlns="http://www.w3.org/2000/svg">
<path d="M4.47808 13.174H5.34764V7.95654H4.47808C3.0346 7.95654 1.86938 9.12177 1.86938 10.5653C1.86938 12.0087 3.0346 13.174 4.47808 13.174Z" stroke="#064088" stroke-miterlimit="10" stroke-linecap="round" stroke-linejoin="round"/>
<path d="M18.391 13.174H17.5215V7.95654H18.391C19.8345 7.95654 20.9997 9.12177 20.9997 10.5653C20.9997 12.0087 19.8345 13.174 18.391 13.174Z" stroke="#064088" stroke-miterlimit="10" stroke-linecap="round" stroke-linejoin="round"/>
<path d="M5.34814 7.95647V6.21735C5.34814 3.33911 8.55684 1 11.4351 1C14.3134 1 17.5221 3.33911 17.5221 6.21735V7.95647" stroke="#064088" stroke-miterlimit="10" stroke-linecap="round" stroke-linejoin="round"/>
<path d="M17.522 13.174C17.522 15.087 15.7828 16.6522 14.0437 16.6522" stroke="#064088" stroke-miterlimit="10" stroke-linecap="round" stroke-linejoin="round"/>
<path d="M18.6436 17.0695C18.9566 17.2955 19.2436 17.5391 19.5045 17.7999C20.4523 18.7304 21.0001 19.826 21.0001 20.9999" stroke="#064088" stroke-miterlimit="10" stroke-linecap="round" stroke-linejoin="round"/>
<path d="M1 21C1 18.4348 3.59997 16.2435 7.27823 15.3566" stroke="#064088" stroke-miterlimit="10" stroke-linecap="round" stroke-linejoin="round"/>
<path d="M13.1741 17.5216H11.435C10.9567 17.5216 10.5654 17.1303 10.5654 16.6521C10.5654 16.1739 10.9567 15.7826 11.435 15.7826H13.1741C13.6524 15.7826 14.0437 16.1739 14.0437 16.6521C14.0437 17.1303 13.6524 17.5216 13.1741 17.5216Z" stroke="#064088" stroke-miterlimit="10" stroke-linecap="round" stroke-linejoin="round"/>
</svg>
