<svg width="17" height="16" viewBox="0 0 17 16" fill="none" xmlns="http://www.w3.org/2000/svg">
<path d="M1 13.6H0.25C0.25 13.9639 0.511268 14.2753 0.869661 14.3386L1 13.6ZM8.93333 15L8.80299 15.7386C9.02133 15.7771 9.24553 15.7171 9.41538 15.5746C9.58524 15.4321 9.68333 15.2217 9.68333 15H8.93333ZM8.93333 1H9.68333C9.68333 0.778287 9.58524 0.567936 9.41538 0.425433C9.24553 0.282931 9.02133 0.222882 8.80299 0.261412L8.93333 1ZM1 2.4L0.869661 1.66141C0.511268 1.72466 0.25 2.03607 0.25 2.4H1ZM6.06967 10.397C6.36256 10.6899 6.83744 10.6899 7.13033 10.397C7.42322 10.1041 7.42322 9.62923 7.13033 9.33634L6.06967 10.397ZM3.397 5.603C3.1041 5.31011 2.62923 5.31011 2.33634 5.603C2.04344 5.8959 2.04344 6.37077 2.33634 6.66366L3.397 5.603ZM7.16056 6.16494C7.43575 5.85535 7.40786 5.3813 7.09827 5.10611C6.78869 4.83092 6.31463 4.85881 6.03944 5.16839L7.16056 6.16494ZM2.30611 9.36839C2.03092 9.67798 2.05881 10.152 2.36839 10.4272C2.67798 10.7024 3.15204 10.6745 3.42722 10.3649L2.30611 9.36839ZM15.9333 2.86667H16.6833C16.6833 2.45245 16.3475 2.11667 15.9333 2.11667V2.86667ZM15.9333 12.6667V13.4167C16.3475 13.4167 16.6833 13.0809 16.6833 12.6667H15.9333ZM0.869661 14.3386L8.80299 15.7386L9.06367 14.2614L1.13034 12.8614L0.869661 14.3386ZM8.80299 0.261412L0.869661 1.66141L1.13034 3.13859L9.06367 1.73859L8.80299 0.261412ZM0.25 2.4V13.6H1.75V2.4H0.25ZM7.13033 9.33634L3.397 5.603L2.33634 6.66366L6.06967 10.397L7.13033 9.33634ZM6.03944 5.16839L2.30611 9.36839L3.42722 10.3649L7.16056 6.16494L6.03944 5.16839ZM9.68333 2.86667V1H8.18333V2.86667H9.68333ZM8.93333 3.61667H15.9333V2.11667H8.93333V3.61667ZM15.1833 2.86667V12.6667H16.6833V2.86667H15.1833ZM9.68333 15V12.6667H8.18333V15H9.68333ZM9.68333 12.6667V2.86667H8.18333V12.6667H9.68333ZM15.9333 11.9167H8.93333V13.4167H15.9333V11.9167Z" fill="#064088"/>
<path d="M8.93335 6.6001H10.52" stroke="#064088" stroke-width="1.5" stroke-linecap="round" stroke-linejoin="round"/>
<path d="M12.6666 6.6001H13.32M12.6666 9.4001H13.32" stroke="#064088" stroke-width="1.5" stroke-linecap="round" stroke-linejoin="round"/>
<path d="M10.52 9.3999H8.93335" stroke="#064088" stroke-width="1.5" stroke-linecap="round" stroke-linejoin="round"/>
</svg>
